<?xml version="1.0" encoding="UTF-8"?>
<svg id="Layer_1" data-name="Layer 1" xmlns="http://www.w3.org/2000/svg" viewBox="0 0 616.24 265.37">
  <defs>
    <style>
      .cls-1 {
        fill: #cf2676;
      }

      .cls-2 {
        fill: #2a074d;
      }
    </style>
  </defs>
  <path class="cls-1" d="M564.79,131.53h-35.31c-6.51,0-11.77,5.27-11.77,11.77v35.31c0,.21.05.41.06.62l-30.71,30.72h-17.05l-21.5-21.51c.34-1.29.58-2.61.58-4.01v-47.09c0-1.4-.24-2.73-.58-4.02l11.75-11.74c.21,0,.4.07.61.07h35.32c6.5,0,11.77-5.28,11.77-11.77v-35.32c0-6.5-5.28-11.77-11.77-11.77h-35.32c-.21,0-.4.05-.61.07l-18.51-18.51v-20.3c0-4.33-3.51-7.85-7.85-7.85h-23.55c-4.33,0-7.85,3.51-7.85,7.85v23.55c0,4.33,3.52,7.85,7.85,7.85h20.3l18.5,18.5c0,.21-.07.41-.07.62v35.32c0,.21.05.41.07.61l-11.74,11.75c-1.3-.34-2.63-.58-4.03-.58h-47.08c-8.68,0-15.7,7.02-15.7,15.7v47.09c0,8.68,7.02,15.7,15.7,15.7h47.09c1.4,0,2.72-.24,4.02-.58l21.5,21.49v20.29c0,4.33,3.51,7.85,7.85,7.85h23.54c4.33,0,7.85-3.51,7.85-7.85v-20.29l30.73-30.72c.21,0,.4.06.61.06h35.32c6.5,0,11.77-5.27,11.77-11.76v-35.32c0-6.5-5.28-11.77-11.77-11.77h0Z"/>
  <g>
    <path class="cls-2" d="M106.59,60.58c-.5.52-.75,1.15-.75,1.86v5.11h18.87c.45,0,.83.17,1.16.48.32.33.48.71.48,1.16v7.61c0,.45-.17.85-.48,1.19-.33.33-.71.48-1.16.48h-18.87v5.41c0,.37.11.75.34,1.12l3.84,4.18c.52.52,1.16.78,1.9.78h18.2c.45,0,.83.17,1.16.48.34.33.52.71.52,1.16v7.42c0,.43-.18.81-.52,1.16-.33.33-.71.48-1.16.48h-22.86c-1.1,0-2.05-.41-2.87-1.23l-8.84-8.61c-.88-.87-1.31-1.96-1.31-3.28v-29.05c0-.6.15-1.14.45-1.64.3-.52.58-.93.86-1.23l8.84-8.84c.89-.87,1.96-1.31,3.21-1.31h22.52c.45,0,.83.17,1.16.48.34.33.52.71.52,1.16v7.61c0,.45-.18.85-.52,1.19-.33.33-.71.48-1.16.48h-18.31c-.52,0-1.08.29-1.68.86l-3.54,3.32Z"/>
    <path class="cls-2" d="M201.98,55.62c.37.37.67.8.89,1.27.22.48.34,1.01.34,1.6v40.53c0,.43-.18.81-.52,1.16-.33.33-.7.48-1.12.48h-7.42c-.45,0-.84-.16-1.16-.48-.33-.34-.48-.73-.48-1.16v-37.66c0-.82-.26-1.44-.78-1.86l-3.1-2.76c-.3-.22-.67-.34-1.12-.34h-5.82c-.37,0-.75.11-1.12.34l-3.1,2.76c-.52.43-.78,1.04-.78,1.86v37.66c0,.43-.17.81-.48,1.16-.33.33-.71.48-1.16.48h-7.42c-.43,0-.81-.16-1.16-.48-.33-.34-.48-.73-.48-1.16v-37.66c0-.82-.26-1.44-.78-1.86l-3.1-2.76c-.28-.22-.63-.34-1.08-.34h-6.64c-.37,0-.74.11-1.08.34l-3.43,3.06c-.52.52-.78,1.16-.78,1.9v37.33c0,.43-.18.81-.52,1.16-.33.33-.7.48-1.12.48h-7.42c-.45,0-.84-.16-1.16-.48-.33-.34-.48-.73-.48-1.16v-40.53c0-.6.12-1.13.37-1.6.27-.47.54-.89.82-1.27l8.61-8.84c.89-.87,2-1.31,3.32-1.31h12.04c1.31,0,2.42.44,3.32,1.31l4.51,4.62,4.44-4.62c.87-.87,1.96-1.31,3.28-1.31h10.96c1.31,0,2.41.44,3.28,1.31l8.61,8.84Z"/>
    <path class="cls-2" d="M209.82,86.53v-26.92c0-1.12.39-2.07,1.19-2.87l9.73-9.96c.89-.87,2-1.31,3.32-1.31h11.26c1.31,0,2.42.44,3.32,1.31l9.7,9.96c.82.8,1.23,1.75,1.23,2.87v26.92c0,1.1-.41,2.05-1.23,2.87l-9.7,9.92c-.89.89-2,1.34-3.32,1.34h-11.26c-1.32,0-2.42-.45-3.32-1.34l-9.73-9.92c-.8-.82-1.19-1.77-1.19-2.87ZM220.52,83.66c0,.75.26,1.37.78,1.86l3.54,3.32.63.56c.22.22.6.34,1.12.34h6.19c.42,0,.78-.11,1.08-.34l.67-.56,3.54-3.32c.52-.49.78-1.12.78-1.86v-21.22c0-.72-.26-1.34-.78-1.86l-3.54-3.32-.67-.52c-.3-.22-.66-.34-1.08-.34h-6.19c-.52,0-.89.11-1.12.34l-.63.52-3.54,3.32c-.52.52-.78,1.15-.78,1.86v21.22Z"/>
    <path class="cls-2" d="M256.18,99.02v-49.6c0-1.09.38-2.02,1.16-2.8.76-.76,1.7-1.16,2.8-1.16h21.55c1.31,0,2.42.44,3.32,1.31l9.7,9.96c.82.8,1.23,1.75,1.23,2.87v39.42c0,.43-.18.81-.52,1.16-.33.33-.71.48-1.16.48h-7.38c-.45,0-.84-.16-1.16-.48-.33-.34-.48-.73-.48-1.16v-36.58c0-.72-.26-1.34-.78-1.86l-4.21-3.84c-.3-.22-.66-.34-1.08-.34h-12.27v42.62c0,.43-.18.81-.52,1.16-.33.33-.7.48-1.12.48h-7.42c-.45,0-.84-.16-1.16-.48-.33-.34-.48-.73-.48-1.16Z"/>
    <path class="cls-2" d="M304.18,100.66c-.45,0-.84-.16-1.16-.48-.33-.34-.48-.73-.48-1.16v-51.91c0-.45.16-.83.48-1.16.32-.32.71-.48,1.16-.48h8.28c.45,0,.83.17,1.16.48.34.33.52.71.52,1.16v51.91c0,.43-.18.81-.52,1.16-.33.33-.71.48-1.16.48h-8.28Z"/>
  </g>
  <g>
    <path class="cls-2" d="M48.5,142.34v-7.72c0-.6.15-1.14.45-1.64.3-.52.58-.93.86-1.23l8.84-8.84c.89-.87,1.96-1.31,3.21-1.31h21.74c.45,0,.83.17,1.16.48.34.33.52.71.52,1.16v7.61c0,.45-.18.85-.52,1.19-.33.33-.71.48-1.16.48h-18.64c-.37,0-.92.29-1.64.86l-2.46,2.24c-.5.5-.75,1.12-.75,1.86v2.31c0,.37.11.75.34,1.12l1.64,1.98c.52.52,1.14.78,1.86.78h13.5c.57,0,1.09.11,1.57.34.49.21.93.48,1.31.86l6.6,6.41c.89.75,1.34,1.86,1.34,3.32v9.17c0,.5-.14,1.01-.41,1.53-.25.52-.56.97-.93,1.34l-8.84,8.8c-.88.89-1.93,1.34-3.17,1.34h-22.86c-.45,0-.85-.16-1.19-.48-.33-.34-.48-.73-.48-1.16v-7.64c0-.42.16-.79.48-1.12.34-.34.75-.52,1.19-.52h19.76c.34,0,.89-.3,1.64-.89l2.42-2.2c.52-.52.78-1.14.78-1.86v-2.65c0-.45-.11-.82-.34-1.12l-1.64-1.98c-.52-.52-1.16-.78-1.9-.78h-12.34c-.52,0-1.04-.12-1.57-.37-.52-.27-.96-.56-1.31-.86l-7.76-7.5c-.88-.89-1.31-2-1.31-3.32Z"/>
    <path class="cls-2" d="M133.39,132.86c.82.8,1.23,1.75,1.23,2.87v39.42c0,.43-.18.81-.52,1.16-.33.33-.71.48-1.16.48h-7.38c-.45,0-.84-.16-1.16-.48-.33-.34-.48-.73-.48-1.16v-16.48h-18.35v16.48c0,.43-.18.81-.52,1.16-.33.33-.7.48-1.12.48h-7.42c-.45,0-.84-.16-1.16-.48-.33-.34-.48-.73-.48-1.16v-39.42c0-1.12.39-2.07,1.19-2.87l9.73-9.96c.89-.87,2-1.31,3.32-1.31h11.26c1.31,0,2.42.44,3.32,1.31l9.7,9.96ZM105.57,149.09h18.35v-10.52c0-.72-.26-1.34-.78-1.86l-3.54-3.32-.67-.52c-.3-.22-.66-.34-1.08-.34h-6.19c-.52,0-.89.11-1.12.34l-.63.52-3.54,3.32c-.52.52-.78,1.15-.78,1.86v10.52Z"/>
    <path class="cls-2" d="M204.81,131.75c.37.37.67.8.89,1.27.22.48.34,1.01.34,1.6v40.53c0,.43-.18.81-.52,1.16-.33.33-.7.48-1.12.48h-7.42c-.45,0-.84-.16-1.16-.48-.33-.34-.48-.73-.48-1.16v-37.66c0-.82-.26-1.44-.78-1.86l-3.1-2.76c-.3-.22-.67-.34-1.12-.34h-5.82c-.37,0-.75.11-1.12.34l-3.1,2.76c-.52.43-.78,1.04-.78,1.86v37.66c0,.43-.17.81-.48,1.16-.33.33-.71.48-1.16.48h-7.42c-.43,0-.81-.16-1.16-.48-.33-.34-.48-.73-.48-1.16v-37.66c0-.82-.26-1.44-.78-1.86l-3.1-2.76c-.28-.22-.63-.34-1.08-.34h-6.64c-.37,0-.74.11-1.08.34l-3.43,3.06c-.52.52-.78,1.16-.78,1.9v37.33c0,.43-.18.81-.52,1.16-.33.33-.7.48-1.12.48h-7.42c-.45,0-.84-.16-1.16-.48-.33-.34-.48-.73-.48-1.16v-40.53c0-.6.12-1.13.37-1.6.27-.47.54-.89.82-1.27l8.61-8.84c.89-.87,2-1.31,3.32-1.31h12.04c1.31,0,2.42.44,3.32,1.31l4.51,4.62,4.44-4.62c.87-.87,1.96-1.31,3.28-1.31h10.96c1.31,0,2.41.44,3.28,1.31l8.61,8.84Z"/>
    <path class="cls-2" d="M212.65,123.24c0-.45.16-.83.48-1.16.32-.32.71-.48,1.16-.48h7.42c.42,0,.79.17,1.12.48.34.33.52.71.52,1.16v37.66c0,.88.26,1.49.78,1.86l3.1,2.76c.22.22.58.34,1.08.34h8.39c.45,0,.82-.11,1.12-.34l3.1-2.76c.52-.37.78-.99.78-1.86v-37.66c0-.45.16-.83.48-1.16.32-.32.71-.48,1.16-.48h7.38c.45,0,.83.17,1.16.48.34.33.52.71.52,1.16v40.53c0,1.1-.41,2.05-1.23,2.87l-8.61,8.8c-.88.89-1.98,1.34-3.32,1.34h-13.46c-1.32,0-2.42-.45-3.32-1.34l-8.61-8.8c-.8-.82-1.19-1.77-1.19-2.87v-40.53Z"/>
    <path class="cls-2" d="M271.36,136.71c-.5.52-.75,1.15-.75,1.86v5.11h18.87c.45,0,.83.17,1.16.48.32.33.48.71.48,1.16v7.61c0,.45-.17.85-.48,1.19-.33.33-.71.48-1.16.48h-18.87v5.41c0,.37.11.75.34,1.12l3.84,4.18c.52.52,1.16.78,1.9.78h18.2c.45,0,.83.17,1.16.48.34.33.52.71.52,1.16v7.42c0,.43-.18.81-.52,1.16-.33.33-.71.48-1.16.48h-22.86c-1.1,0-2.05-.41-2.87-1.23l-8.84-8.61c-.88-.87-1.31-1.96-1.31-3.28v-29.05c0-.6.15-1.14.45-1.64.3-.52.58-.93.86-1.23l8.84-8.84c.89-.87,1.96-1.31,3.21-1.31h22.52c.45,0,.83.17,1.16.48.34.33.52.71.52,1.16v7.61c0,.45-.18.85-.52,1.19-.33.33-.71.48-1.16.48h-18.31c-.52,0-1.08.29-1.68.86l-3.54,3.32Z"/>
    <path class="cls-2" d="M303.17,123.24c0-.45.16-.83.48-1.16.32-.32.71-.48,1.16-.48h8.28c.45,0,.83.17,1.16.48.34.33.52.71.52,1.16v36.54c0,.75.24,1.37.75,1.86l3.54,3.32c.6.6,1.16.89,1.68.89h13.8c.45,0,.83.18,1.16.52.32.33.48.7.48,1.12v7.64c0,.43-.17.81-.48,1.16-.33.33-.71.48-1.16.48h-16.89c-1.27,0-2.34-.45-3.21-1.34l-9.96-9.92c-.28-.37-.56-.8-.86-1.31-.3-.52-.45-1.04-.45-1.57v-39.42Z"/>
  </g>
  <g>
    <path class="cls-1" d="M52.41,198.88v20.72h-3.07v-20.72h3.07Z"/>
    <path class="cls-1" d="M59.74,198.88h7.56c5.86,0,9.8,3.97,9.8,10.14s-3.84,10.58-9.91,10.58h-7.45v-20.72ZM62.82,217.02h4.16c4.7,0,6.92-3.39,6.92-7.95,0-3.96-2.03-7.61-6.9-7.61h-4.17v15.57Z"/>
    <path class="cls-1" d="M96.38,210.06h-10.23v6.94h11.24l-.39,2.6h-13.86v-20.72h13.72v2.6h-10.71v5.97h10.23v2.6Z"/>
    <path class="cls-1" d="M106.48,213.65l-2.11,5.94h-3.05l7.31-20.72h3.81l7.63,20.72h-3.26l-2.19-5.94h-8.14ZM113.86,211.05c-1.88-5.24-2.94-8.12-3.4-9.75h-.03c-.51,1.81-1.69,5.27-3.2,9.75h6.62Z"/>
    <path class="cls-1" d="M126.87,213.77c.54,2.41,2.2,3.67,5.09,3.67,3.07,0,4.3-1.41,4.3-3.28,0-2-1.02-3.09-5.05-4.06-5.02-1.21-6.66-2.96-6.66-5.85,0-3.18,2.35-5.67,7.03-5.67,5.04,0,7.1,2.87,7.38,5.65h-3.12c-.34-1.74-1.41-3.22-4.37-3.22-2.39,0-3.75,1.06-3.75,2.94s1.11,2.58,4.69,3.44c5.93,1.43,7.03,3.72,7.03,6.43,0,3.43-2.55,6.04-7.69,6.04s-7.56-2.8-8-6.09h3.12Z"/>
    <path class="cls-1" d="M158.8,201.48h-6.62v-2.6h16.33v2.6h-6.62v18.11h-3.09v-18.11Z"/>
    <path class="cls-1" d="M173.25,198.88h3.07v8.54h10.33v-8.54h3.07v20.72h-3.07v-9.57h-10.33v9.57h-3.07v-20.72Z"/>
    <path class="cls-1" d="M199.98,213.65l-2.11,5.94h-3.05l7.31-20.72h3.81l7.63,20.72h-3.26l-2.19-5.94h-8.14ZM207.36,211.05c-1.88-5.24-2.94-8.12-3.4-9.75h-.03c-.51,1.81-1.69,5.27-3.2,9.75h6.62Z"/>
    <path class="cls-1" d="M220.31,201.48h-6.62v-2.6h16.33v2.6h-6.62v18.11h-3.09v-18.11Z"/>
    <path class="cls-1" d="M247.52,219.6l-5.5-20.72h3.26c1.67,7.3,3.66,15.05,4.01,17.4h.03c.59-2.89,3.28-12.17,4.6-17.4h2.93c1.21,4.5,3.9,14.55,4.4,17.28h.03c.67-3.77,3.4-13.22,4.47-17.28h3.02l-5.96,20.72h-3.27c-1.22-4.73-3.73-14.01-4.28-16.69h-.03c-.65,3.2-3.16,12.04-4.45,16.69h-3.26Z"/>
    <path class="cls-1" d="M291.92,209.13c0,5.71-3.25,10.77-9.81,10.77-6.17,0-9.58-4.71-9.58-10.66s3.53-10.66,9.83-10.66c5.88,0,9.56,4.35,9.56,10.55ZM275.74,209.15c0,4.39,2.19,8.16,6.5,8.16,4.65,0,6.47-3.85,6.47-8.13s-2.06-8-6.48-8-6.49,3.63-6.49,7.98Z"/>
    <path class="cls-1" d="M301,210.63v8.97h-3.04v-20.72h8.29c4.31,0,6.61,2.34,6.61,5.57,0,2.71-1.54,4.32-3.43,4.88,1.57.44,3.05,1.67,3.05,5.28v.91c0,1.42-.05,3.19.28,4.07h-2.97c-.37-.9-.37-2.5-.37-4.49v-.42c0-2.82-.78-4.06-4.43-4.06h-3.99ZM301,208.08h4.36c3.03,0,4.34-1.14,4.34-3.36s-1.37-3.29-4.07-3.29h-4.63v6.65Z"/>
    <path class="cls-1" d="M319.2,198.88h3.05v9.99c1.51-1.6,6.58-6.7,9.72-9.99h3.79l-8.8,8.71,9.21,12h-3.72l-7.64-10.01-2.56,2.34v7.67h-3.05v-20.72Z"/>
  </g>
</svg>